# This file uses centimeters as units for non-parametric coordinates.

mtllib gutlinbod2.mtl
g default
v -6.341424 0.001697 9.349236
v 8.679192 0.001697 9.349236
v -6.341424 1.346141 9.349236
v 8.679192 1.346141 9.349236
v -6.341424 1.346141 -9.763799
v 8.679192 1.346141 -9.763799
v -6.341424 0.001697 -9.763799
v 8.679192 0.001697 -9.763799
v -3.288859 0.844120 -2.451076
v 3.037510 0.844120 -2.451076
v -3.288859 7.170487 -2.451076
v 3.037510 7.170487 -2.451076
v -3.288859 7.170487 -5.076908
v 3.037510 7.170487 -5.076908
v -3.288859 0.844120 -5.076908
v 3.037510 0.844120 -5.076908
v -1.864806 0.844120 -2.451076
v -1.864806 8.797063 -2.451076
v -1.864806 8.797063 -5.076908
v -1.864806 0.844120 -5.076908
v 1.515926 0.844120 -2.451076
v 1.515926 8.797063 -2.451076
v 1.515926 8.797063 -5.076908
v 1.515926 0.844120 -5.076908
v -3.288859 0.844120 3.480476
v 3.037510 0.844120 3.480476
v -3.288859 7.170487 3.480476
v 3.037510 7.170487 3.480476
v -3.288859 7.170487 2.311701
v 3.037510 7.170487 2.311701
v -3.288859 0.844120 2.311701
v 3.037510 0.844120 2.311701
v -1.864806 0.844120 3.480476
v -1.864806 8.797063 3.480476
v -1.864806 8.797063 2.311701
v -1.864806 0.844120 2.311701
v 1.515926 0.844120 3.480476
v 1.515926 8.797063 3.480476
v 1.515926 8.797063 2.311701
v 1.515926 0.844120 2.311701
v 2.257859 6.347463 3.491502
v 1.001521 7.640747 3.491502
v -0.509227 8.021566 3.491502
v -2.012863 7.563118 3.491502
v -3.157053 6.498366 3.491502
v -3.596414 4.741875 3.491502
v -3.220731 2.710404 3.491502
v -2.151956 1.230342 3.491502
v -0.620699 0.740542 3.491502
v 1.027033 1.403290 3.491502
v 2.313394 3.029517 3.491502
v 2.777198 4.685302 3.491502
v 2.257859 6.347463 4.181538
v 1.001521 7.640747 4.181538
v -0.509227 8.021566 4.181538
v -2.012863 7.563118 4.181538
v -3.157051 6.498366 4.181538
v -3.596414 4.741875 4.181538
v -3.220731 2.710404 4.181538
v -2.151956 1.230342 4.181538
v -0.620699 0.740542 4.181538
v 1.027033 1.403290 4.181538
v 2.313394 3.029517 4.181538
v 2.777198 4.685302 4.181538
v -0.434202 4.722036 3.491502
v 1.892760 6.033245 4.181538
v 0.812683 7.145082 4.181538
v -0.421612 4.635862 4.181538
v -0.486112 7.472475 4.181538
v -1.778791 7.078347 4.181538
v -2.762451 6.162976 4.181538
v -3.140172 4.652917 4.181538
v -2.817198 2.906456 4.181538
v -1.898369 1.634042 4.181538
v -0.581945 1.212961 4.181538
v 0.834616 1.782727 4.181538
v 1.940504 3.180798 4.181538
v 2.339237 4.604281 4.181538
v -3.596414 4.741875 7.461051
v -3.220731 2.710404 7.461051
v -2.817198 2.906456 7.461051
v -3.140172 4.652917 7.461051
v -2.151955 1.230342 7.461051
v -1.898369 1.634042 7.461051
v -0.620699 0.740542 7.461051
v -0.581944 1.212961 7.461051
v 1.027034 1.403290 7.461051
v 0.834617 1.782727 7.461051
v 2.313396 3.029517 7.461051
v 1.940505 3.180798 7.461051
v 2.450604 0.649288 3.150793
v 4.717751 0.649288 3.150793
v 4.717751 0.649288 8.147104
v 2.450604 0.649288 8.147104
v 2.239499 10.152812 3.150793
v 2.599723 10.152812 3.150793
v 2.285409 8.086023 4.215401
v 2.307623 7.086023 4.215401
v 3.283211 7.086023 4.215401
v 3.060344 8.086023 4.215401
v 2.307623 7.086023 7.129368
v 3.283211 7.086023 7.129368
v 2.285409 8.086023 7.129368
v 3.060344 8.086023 7.129368
v 2.599723 10.152812 8.147104
v 2.239499 10.152812 8.147104
vt 0.375000 0.000000
vt 0.625000 0.000000
vt 0.375000 0.250000
vt 0.625000 0.250000
vt 0.375000 0.500000
vt 0.625000 0.500000
vt 0.375000 0.750000
vt 0.625000 0.750000
vt 0.375000 1.000000
vt 0.625000 1.000000
vt 0.875000 0.000000
vt 0.875000 0.250000
vt 0.125000 0.000000
vt 0.125000 0.250000
vt 0.375000 0.000000
vt 0.431275 0.000000
vt 0.431275 0.250000
vt 0.375000 0.250000
vt 0.431275 0.500000
vt 0.375000 0.500000
vt 0.431275 0.750000
vt 0.375000 0.750000
vt 0.431275 1.000000
vt 0.375000 1.000000
vt 0.625000 0.000000
vt 0.875000 0.000000
vt 0.875000 0.250000
vt 0.625000 0.250000
vt 0.125000 0.000000
vt 0.125000 0.250000
vt 0.564871 0.000000
vt 0.564871 0.250000
vt 0.564871 0.500000
vt 0.564871 0.750000
vt 0.564871 1.000000
vt 0.625000 0.500000
vt 0.625000 0.750000
vt 0.625000 1.000000
vt 0.375000 0.000000
vt 0.431275 0.000000
vt 0.431275 0.250000
vt 0.375000 0.250000
vt 0.431275 0.500000
vt 0.375000 0.500000
vt 0.431275 0.750000
vt 0.375000 0.750000
vt 0.431275 1.000000
vt 0.375000 1.000000
vt 0.625000 0.000000
vt 0.875000 0.000000
vt 0.875000 0.250000
vt 0.625000 0.250000
vt 0.125000 0.000000
vt 0.125000 0.250000
vt 0.564871 0.000000
vt 0.564871 0.250000
vt 0.564871 0.500000
vt 0.564871 0.750000
vt 0.564871 1.000000
vt 0.625000 0.500000
vt 0.625000 0.750000
vt 0.625000 1.000000
vt 0.375000 0.312500
vt 0.395833 0.312500
vt 0.395833 0.687500
vt 0.375000 0.687500
vt 0.416667 0.312500
vt 0.416667 0.687500
vt 0.437500 0.312500
vt 0.437500 0.687500
vt 0.458333 0.312500
vt 0.458333 0.687500
vt 0.479167 0.312500
vt 0.479167 0.687500
vt 0.500000 0.312500
vt 0.500000 0.687500
vt 0.520833 0.312500
vt 0.520833 0.687500
vt 0.541667 0.312500
vt 0.541667 0.687500
vt 0.562500 0.312500
vt 0.562500 0.687500
vt 0.583333 0.312500
vt 0.583333 0.687500
vt 0.604167 0.312500
vt 0.604167 0.687500
vt 0.625000 0.312500
vt 0.625000 0.687500
vt 0.578125 0.020934
vt 0.635316 0.078125
vt 0.500000 0.156250
vt 0.500000 0.000000
vt 0.421875 0.020934
vt 0.364684 0.078125
vt 0.343750 0.156250
vt 0.364684 0.234375
vt 0.421875 0.291566
vt 0.500000 0.312500
vt 0.578125 0.291566
vt 0.635316 0.234375
vt 0.656250 0.156250
vt 0.635316 0.921875
vt 0.578125 0.979066
vt 0.500000 0.843750
vt 0.500000 1.000000
vt 0.421875 0.979066
vt 0.364684 0.921875
vt 0.343750 0.843750
vt 0.364684 0.765625
vt 0.421875 0.708434
vt 0.500000 0.687500
vt 0.578125 0.708434
vt 0.635316 0.765625
vt 0.656250 0.843750
vt 0.635316 0.921875
vt 0.578125 0.979066
vt 0.500000 1.000000
vt 0.421875 0.979066
vt 0.364684 0.921875
vt 0.343750 0.843750
vt 0.343750 0.843750
vt 0.364684 0.765625
vt 0.364684 0.765625
vt 0.343750 0.843750
vt 0.421875 0.708434
vt 0.421875 0.708434
vt 0.500000 0.687500
vt 0.500000 0.687500
vt 0.578125 0.708434
vt 0.578125 0.708434
vt 0.635316 0.765625
vt 0.635316 0.765625
vt 0.635316 0.765625
vt 0.656250 0.843750
vt 0.364684 0.765625
vt 0.421875 0.708434
vt 0.500000 0.687500
vt 0.578125 0.708434
vt 0.375000 0.750000
vt 0.625000 0.750000
vt 0.625000 1.000000
vt 0.375000 1.000000
vt 0.375000 0.500000
vt 0.625000 0.500000
vt 0.445990 0.500000
vt 0.447440 0.750000
vt 0.511137 0.750000
vt 0.496585 0.500000
vt 0.447440 1.000000
vt 0.511137 1.000000
vt 0.445990 0.250000
vt 0.496585 0.250000
vt 0.375000 0.000000
vt 0.625000 0.000000
vt 0.625000 0.250000
vt 0.375000 0.250000
vt 0.447440 0.000000
vt 0.511137 0.000000
vt 0.125000 0.000000
vt 0.324076 0.195631
vt 0.324076 0.169325
vt 0.178270 0.169325
vt 0.125000 0.250000
vt 0.875000 0.000000
vt 0.875000 0.250000
vt 0.821730 0.169325
vt 0.675924 0.169325
vt 0.675924 0.195631
vt 0.178270 0.195631
vt 0.821730 0.195631
vn 0.000000 0.000000 1.000000
vn 0.000000 0.000000 1.000000
vn 0.000000 0.000000 1.000000
vn 0.000000 0.000000 1.000000
vn 0.000000 1.000000 0.000000
vn 0.000000 1.000000 0.000000
vn 0.000000 1.000000 0.000000
vn 0.000000 1.000000 0.000000
vn 0.000000 0.000000 -1.000000
vn 0.000000 0.000000 -1.000000
vn 0.000000 0.000000 -1.000000
vn 0.000000 0.000000 -1.000000
vn 0.000000 -1.000000 0.000000
vn 0.000000 -1.000000 0.000000
vn 0.000000 -1.000000 0.000000
vn 0.000000 -1.000000 0.000000
vn 1.000000 0.000000 0.000000
vn 1.000000 0.000000 0.000000
vn 1.000000 0.000000 0.000000
vn 1.000000 0.000000 0.000000
vn -1.000000 0.000000 0.000000
vn -1.000000 0.000000 0.000000
vn -1.000000 0.000000 0.000000
vn -1.000000 0.000000 0.000000
vn 0.000000 0.000000 1.000000
vn 0.000000 0.000000 1.000000
vn 0.000000 0.000000 1.000000
vn 0.000000 0.000000 1.000000
vn -0.752393 0.658714 0.000000
vn -0.320657 0.947196 0.000000
vn -0.320657 0.947196 0.000000
vn -0.752393 0.658714 0.000000
vn 0.000000 0.000000 -1.000000
vn 0.000000 0.000000 -1.000000
vn 0.000000 0.000000 -1.000000
vn 0.000000 0.000000 -1.000000
vn 0.000000 -1.000000 0.000000
vn 0.000000 -1.000000 0.000000
vn 0.000000 -1.000000 0.000000
vn 0.000000 -1.000000 0.000000
vn 1.000000 0.000000 0.000000
vn 1.000000 0.000000 0.000000
vn 1.000000 0.000000 0.000000
vn 1.000000 0.000000 0.000000
vn -1.000000 0.000000 0.000000
vn -1.000000 0.000000 0.000000
vn -1.000000 0.000000 0.000000
vn -1.000000 0.000000 0.000000
vn -0.000000 0.000000 1.000000
vn -0.000000 0.000000 1.000000
vn 0.314916 0.949120 0.000000
vn 0.314916 0.949120 0.000000
vn 0.000000 0.000000 -1.000000
vn 0.000000 0.000000 -1.000000
vn 0.000000 -1.000000 0.000000
vn 0.000000 -1.000000 0.000000
vn -0.000000 0.000000 1.000000
vn -0.000000 0.000000 1.000000
vn 0.730283 0.683145 0.000000
vn 0.730283 0.683145 0.000000
vn 0.000000 0.000000 -1.000000
vn 0.000000 0.000000 -1.000000
vn 0.000000 -1.000000 0.000000
vn 0.000000 -1.000000 0.000000
vn 0.000000 0.000000 1.000000
vn 0.000000 0.000000 1.000000
vn 0.000000 0.000000 1.000000
vn 0.000000 0.000000 1.000000
vn -0.752394 0.658714 0.000000
vn -0.320657 0.947196 0.000000
vn -0.320657 0.947196 0.000000
vn -0.752394 0.658714 0.000000
vn -0.000000 0.000000 -1.000000
vn -0.000000 0.000000 -1.000000
vn -0.000000 0.000000 -1.000000
vn -0.000000 0.000000 -1.000000
vn 0.000000 -1.000000 0.000000
vn 0.000000 -1.000000 0.000000
vn 0.000000 -1.000000 0.000000
vn 0.000000 -1.000000 0.000000
vn 1.000000 0.000000 0.000000
vn 1.000000 0.000000 0.000000
vn 1.000000 0.000000 0.000000
vn 1.000000 0.000000 0.000000
vn -1.000000 0.000000 0.000000
vn -1.000000 0.000000 0.000000
vn -1.000000 0.000000 0.000000
vn -1.000000 0.000000 0.000000
vn 0.000000 0.000000 1.000000
vn 0.000000 0.000000 1.000000
vn 0.314916 0.949120 0.000000
vn 0.314916 0.949120 0.000000
vn 0.000000 0.000000 -1.000000
vn 0.000000 0.000000 -1.000000
vn 0.000000 -1.000000 0.000000
vn 0.000000 -1.000000 0.000000
vn 0.000000 0.000000 1.000000
vn 0.000000 0.000000 1.000000
vn 0.730283 0.683145 0.000000
vn 0.730283 0.683145 0.000000
vn 0.000000 0.000000 -1.000000
vn 0.000000 0.000000 -1.000000
vn 0.000000 -1.000000 0.000000
vn 0.000000 -1.000000 0.000000
vn 0.717278 0.696787 0.000000
vn 0.717278 0.696787 0.000000
vn 0.717278 0.696787 0.000000
vn 0.717278 0.696787 0.000000
vn 0.244427 0.969668 0.000000
vn 0.244427 0.969668 0.000000
vn 0.244427 0.969668 0.000000
vn 0.244427 0.969668 0.000000
vn -0.291639 0.956529 0.000000
vn -0.291639 0.956529 0.000000
vn -0.291639 0.956529 0.000000
vn -0.291639 0.956529 0.000000
vn -0.681238 0.732062 0.000001
vn -0.681238 0.732062 0.000001
vn -0.681238 0.732062 0.000001
vn -0.681238 0.732062 0.000001
vn -0.970111 0.242660 0.000002
vn -0.970111 0.242660 0.000002
vn -0.970111 0.242660 0.000002
vn -0.970111 0.242660 0.000002
vn -0.983327 -0.181848 0.000000
vn -0.983327 -0.181848 0.000000
vn -0.924814 -0.380419 0.000000
vn -0.983327 -0.181848 0.000000
vn -0.810720 -0.585434 0.000001
vn -0.810720 -0.585434 0.000001
vn -0.810720 -0.585434 0.000000
vn -0.304662 -0.952461 -0.000001
vn -0.304662 -0.952461 -0.000001
vn -0.304662 -0.952461 0.000000
vn -0.304662 -0.952461 0.000000
vn 0.373164 -0.927765 0.000000
vn 0.373164 -0.927765 0.000000
vn 0.615096 -0.788453 -0.000000
vn 0.373164 -0.927765 -0.000000
vn 0.784297 -0.620386 0.000000
vn 0.784297 -0.620386 0.000000
vn 0.784296 -0.620386 -0.000000
vn 0.962936 -0.269729 0.000000
vn 0.962936 -0.269729 0.000000
vn 0.962936 -0.269729 0.000000
vn 0.962936 -0.269729 0.000000
vn 0.954494 0.298230 -0.000000
vn 0.954494 0.298230 -0.000000
vn 0.954494 0.298230 -0.000000
vn 0.954494 0.298230 -0.000000
vn 0.000000 0.000000 -1.000000
vn 0.000000 0.000000 -1.000000
vn -0.000000 0.000000 -1.000000
vn 0.000000 0.000000 -1.000000
vn -0.000000 0.000000 -1.000000
vn 0.000000 0.000000 -1.000000
vn -0.000000 0.000000 -1.000000
vn -0.000000 0.000000 -1.000000
vn 0.000000 0.000000 -1.000000
vn 0.000000 0.000000 -1.000000
vn 0.000000 0.000000 -1.000000
vn -0.000000 0.000000 -1.000000
vn -0.000000 0.000000 -1.000000
vn 0.000000 0.000000 1.000000
vn 0.000000 0.000000 1.000000
vn -0.000000 0.000000 1.000000
vn -0.000000 0.000000 1.000000
vn -0.000000 0.000000 1.000000
vn 0.000000 0.000000 1.000000
vn -0.000000 0.000000 1.000000
vn -0.000000 0.000000 1.000000
vn -0.000000 0.000000 1.000000
vn -0.000000 0.000000 1.000000
vn -0.000000 0.000000 1.000000
vn 0.000000 0.000000 1.000000
vn 0.000000 0.000000 1.000000
vn 0.000000 0.000000 1.000000
vn 0.000000 0.000000 1.000000
vn 0.000000 0.000000 1.000000
vn 0.000000 0.000000 1.000000
vn 0.000000 0.000000 1.000000
vn 0.000000 0.000000 1.000000
vn 0.000000 0.000000 1.000000
vn 0.000000 0.000000 1.000000
vn 0.000000 0.000000 1.000000
vn 0.000000 0.000000 1.000000
vn 0.000000 0.000000 1.000000
vn 0.000000 0.000000 1.000000
vn -0.000000 0.000000 1.000000
vn -0.000000 0.000000 1.000000
vn -0.000000 0.000000 1.000000
vn -0.000000 0.000000 1.000000
vn -0.000000 0.000000 1.000000
vn -0.000000 0.000000 1.000000
vn -0.000000 0.000000 1.000000
vn -0.000000 0.000000 1.000000
vn 0.000002 0.000000 1.000000
vn 0.000002 0.000000 1.000000
vn 0.000002 0.000000 1.000000
vn 0.000002 0.000000 1.000000
vn 0.000000 0.000000 1.000000
vn 0.000000 0.000000 1.000000
vn 0.000000 0.000000 1.000000
vn 0.000000 0.000000 1.000000
vn -0.000000 0.000000 1.000000
vn -0.000000 0.000000 1.000000
vn -0.000000 0.000000 1.000000
vn -0.000000 0.000000 1.000000
vn 0.000000 0.000000 1.000000
vn 0.000000 0.000000 1.000000
vn 0.000000 0.000000 1.000000
vn 0.000000 0.000000 1.000000
vn 0.000000 0.000000 1.000000
vn 0.000000 0.000000 1.000000
vn 0.000000 0.000000 1.000000
vn 0.000000 0.000000 1.000000
vn -0.000000 0.000000 1.000000
vn -0.000000 0.000000 1.000000
vn -0.000000 0.000000 1.000000
vn -0.000000 0.000000 1.000000
vn 0.000000 0.000000 1.000000
vn 0.000000 0.000000 1.000000
vn 0.000000 0.000000 1.000000
vn 0.000000 0.000000 1.000000
vn -0.924814 -0.380419 0.000000
vn -0.983327 -0.181848 0.000000
vn 0.924814 0.380419 -0.000000
vn 0.983327 0.181847 0.000000
vn 0.983327 0.181847 0.000000
vn 0.924814 0.380419 -0.000000
vn 0.191376 0.981517 0.000000
vn 0.191376 0.981517 0.000000
vn 0.191376 0.981517 0.000000
vn 0.191376 0.981517 0.000000
vn -0.810720 -0.585434 0.000000
vn 0.810721 0.585433 -0.000000
vn 0.810721 0.585433 -0.000000
vn -0.304662 -0.952461 0.000000
vn -0.304662 -0.952461 0.000000
vn 0.304661 0.952461 -0.000000
vn 0.304661 0.952461 -0.000000
vn 0.304661 0.952461 -0.000000
vn 0.304661 0.952461 -0.000000
vn 0.615096 -0.788453 -0.000000
vn 0.373164 -0.927765 -0.000000
vn -0.615095 0.788453 0.000000
vn -0.373164 0.927765 0.000000
vn -0.373164 0.927766 0.000000
vn -0.615095 0.788453 0.000000
vn 0.784296 -0.620386 -0.000000
vn 0.375939 0.926645 -0.000000
vn 0.375939 0.926645 -0.000000
vn 0.375939 0.926645 -0.000000
vn 0.375939 0.926645 -0.000000
vn -0.784296 0.620386 0.000000
vn -0.784296 0.620386 0.000000
vn 0.000000 -1.000000 0.000000
vn 0.000000 -1.000000 0.000000
vn 0.000000 -1.000000 0.000000
vn 0.000000 -1.000000 0.000000
vn 0.000000 0.000000 -1.000000
vn 0.000000 0.000000 -1.000000
vn 0.000000 0.000000 -1.000000
vn 0.000000 0.000000 -1.000000
vn 0.000000 0.000000 1.000000
vn 0.000000 0.000000 1.000000
vn 0.000000 0.000000 1.000000
vn 0.000000 0.000000 1.000000
vn 0.000000 1.000000 0.000000
vn 0.000000 1.000000 0.000000
vn 0.000000 1.000000 0.000000
vn 0.000000 1.000000 0.000000
vn 0.000000 -1.000000 0.000000
vn 0.000000 -1.000000 0.000000
vn 0.000000 -1.000000 0.000000
vn 0.000000 -1.000000 0.000000
vn 0.000000 0.000000 1.000000
vn 0.000000 0.000000 1.000000
vn 0.000000 0.000000 1.000000
vn 0.000000 0.000000 1.000000
vn 0.000000 0.000000 -1.000000
vn 0.000000 0.000000 -1.000000
vn 0.000000 0.000000 -1.000000
vn 0.000000 0.000000 -1.000000
vn 0.000000 1.000000 0.000000
vn 0.000000 1.000000 0.000000
vn 0.000000 1.000000 0.000000
vn 0.000000 1.000000 0.000000
vn -0.999753 -0.022208 -0.000000
vn -0.999753 -0.022208 -0.000000
vn -0.999753 -0.022208 0.000000
vn -0.999753 -0.022208 -0.000000
vn -0.999753 -0.022208 -0.000000
vn -0.999753 -0.022208 0.000000
vn 0.976053 0.217531 -0.000000
vn 0.976053 0.217531 -0.000000
vn 0.976053 0.217531 0.000000
vn 0.976054 0.217531 -0.000000
vn 0.976053 0.217531 -0.000000
vn 0.976054 0.217531 0.000000
vn -0.999753 -0.022208 0.000000
vn -0.999753 -0.022208 0.000000
vn 0.976053 0.217531 0.000000
vn 0.976053 0.217531 0.000000
s off
g pCube8
usemtl aiStandardSurface2SG
f 1/1/1 2/2/2 4/4/3 3/3/4
f 3/3/5 4/4/6 6/6/7 5/5/8
f 5/5/9 6/6/10 8/8/11 7/7/12
f 7/7/13 8/8/14 2/10/15 1/9/16
f 2/2/17 8/11/18 6/12/19 4/4/20
f 7/13/21 1/1/22 3/3/23 5/14/24
s 1
f 9/15/25 17/16/26 18/17/27 11/18/28
s 2
f 11/18/29 18/17/30 19/19/31 13/20/32
s 3
f 13/20/33 19/19/34 20/21/35 15/22/36
s 4
f 15/22/37 20/21/38 17/23/39 9/24/40
s off
f 10/25/41 16/26/42 14/27/43 12/28/44
f 15/29/45 9/15/46 11/18/47 13/30/48
s 1
f 18/17/27 17/16/26 21/31/49 22/32/50
s 2
f 19/19/31 18/17/30 22/32/51 23/33/52
s 3
f 20/21/35 19/19/34 23/33/53 24/34/54
s 4
f 17/23/39 20/21/38 24/34/55 21/35/56
s 1
f 22/32/50 21/31/49 10/25/57 12/28/58
s 2
f 23/33/52 22/32/51 12/28/59 14/36/60
s 3
f 24/34/54 23/33/53 14/36/61 16/37/62
s 4
f 21/35/56 24/34/55 16/37/63 10/38/64
s 5
f 25/39/65 33/40/66 34/41/67 27/42/68
s 6
f 27/42/69 34/41/70 35/43/71 29/44/72
s 7
f 29/44/73 35/43/74 36/45/75 31/46/76
s 8
f 31/46/77 36/45/78 33/47/79 25/48/80
s off
f 26/49/81 32/50/82 30/51/83 28/52/84
f 31/53/85 25/39/86 27/42/87 29/54/88
s 5
f 34/41/67 33/40/66 37/55/89 38/56/90
s 6
f 35/43/71 34/41/70 38/56/91 39/57/92
s 7
f 36/45/75 35/43/74 39/57/93 40/58/94
s 8
f 33/47/79 36/45/78 40/58/95 37/59/96
s 5
f 38/56/90 37/55/89 26/49/97 28/52/98
s 6
f 39/57/92 38/56/91 28/52/99 30/60/100
s 7
f 40/58/94 39/57/93 30/60/101 32/61/102
s 8
f 37/59/96 40/58/95 32/61/103 26/62/104
s off
f 41/63/105 42/64/106 54/65/107 53/66/108
f 42/64/109 43/67/110 55/68/111 54/65/112
f 43/67/113 44/69/114 56/70/115 55/68/116
f 44/69/117 45/71/118 57/72/119 56/70/120
f 45/71/121 46/73/122 58/74/123 57/72/124
s 9
f 46/73/125 47/75/126 59/76/127 58/74/128
f 47/75/129 48/77/130 60/78/131 59/76/127
s 11
f 48/77/132 49/79/133 61/80/134 60/78/135
s 12
f 49/79/136 50/81/137 62/82/138 61/80/139
f 50/81/140 51/83/141 63/84/142 62/82/138
s off
f 51/83/143 52/85/144 64/86/145 63/84/146
f 52/85/147 41/87/148 53/88/149 64/86/150
s 14
f 42/89/151 41/90/152 65/91/153
f 43/92/154 42/89/151 65/91/153
f 44/93/155 43/92/154 65/91/153
f 45/94/156 44/93/155 65/91/153
f 46/95/157 45/94/156 65/91/153
f 47/96/158 46/95/157 65/91/153
f 48/97/159 47/96/158 65/91/153
f 49/98/160 48/97/159 65/91/153
f 50/99/161 49/98/160 65/91/153
f 51/100/162 50/99/161 65/91/153
f 52/101/163 51/100/162 65/91/153
f 41/90/152 52/101/163 65/91/153
s 15
f 66/102/164 67/103/165 68/104/166
f 67/103/165 69/105/167 68/104/166
f 69/105/167 70/106/168 68/104/166
f 70/106/168 71/107/169 68/104/166
f 71/107/169 72/108/170 68/104/166
f 72/108/170 73/109/171 68/104/166
f 73/109/171 74/110/172 68/104/166
f 74/110/172 75/111/173 68/104/166
f 75/111/173 76/112/174 68/104/166
f 76/112/174 77/113/175 68/104/166
f 77/113/175 78/114/176 68/104/166
f 78/114/176 66/102/164 68/104/166
s off
f 53/115/177 54/116/178 67/103/179 66/102/180
f 54/116/181 55/117/182 69/105/183 67/103/184
f 55/117/185 56/118/186 70/106/187 69/105/188
f 56/118/189 57/119/190 71/107/191 70/106/192
f 57/119/193 58/120/194 72/108/195 71/107/196
f 79/121/197 80/122/198 81/123/199 82/124/200
f 80/122/201 83/125/202 84/126/203 81/123/204
f 83/125/205 85/127/206 86/128/207 84/126/208
f 85/127/209 87/129/210 88/130/211 86/128/212
f 87/129/213 89/131/214 90/132/215 88/130/216
f 63/133/217 64/134/218 78/114/219 77/113/220
f 64/134/221 53/115/222 66/102/223 78/114/224
s 9
f 58/120/128 59/135/127 80/122/225 79/121/226
s 16
f 73/109/227 72/108/228 82/124/229 81/123/230
s off
f 72/108/231 58/120/232 79/121/233 82/124/234
s 9
f 59/135/127 60/136/131 83/125/235 80/122/225
s 16
f 74/110/236 73/109/227 81/123/230 84/126/237
s 11
f 60/136/135 61/137/134 85/127/238 83/125/239
s off
f 75/111/240 74/110/241 84/126/242 86/128/243
s 12
f 61/137/139 62/138/138 87/129/244 85/127/245
s 17
f 76/112/246 75/111/247 86/128/248 88/130/249
s 12
f 62/138/138 63/133/142 89/131/250 87/129/244
s off
f 63/133/251 77/113/252 90/132/253 89/131/254
s 17
f 77/113/255 76/112/246 88/130/249 90/132/256
s off
f 91/139/257 92/140/258 93/141/259 94/142/260
f 95/143/261 96/144/262 92/140/263 91/139/264
f 97/145/265 98/146/266 99/147/267 100/148/268
f 98/146/269 101/149/270 102/150/271 99/147/272
f 103/151/273 97/145/274 100/148/275 104/152/276
f 94/153/277 93/154/278 105/155/279 106/156/280
f 101/157/281 103/151/282 104/152/283 102/158/284
f 106/156/285 105/155/286 96/144/287 95/143/288
s 18
f 91/159/289 94/153/290 103/160/291 101/161/292 98/162/293 95/163/294
s 19
f 93/154/295 92/164/296 96/165/297 99/166/298 102/167/299 104/168/300
s 18
f 94/153/290 106/156/301 95/163/294 98/162/293 97/169/302 103/160/291
s 19
f 93/154/295 104/168/300 100/170/303 99/166/298 96/165/297 105/155/304
